<svg width="695" height="461" viewBox="0 0 695 461" fill="none" xmlns="http://www.w3.org/2000/svg">
<path d="M533.309 353.433C548.94 353.433 562.414 351.277 573.732 346.963C585.589 342.65 595.83 337.797 604.453 332.405C613.077 327.013 620.353 322.161 626.282 317.847C632.21 313.534 637.6 311.377 642.451 311.377C654.847 311.377 661.045 319.465 661.045 335.64C661.045 339.415 660.237 344.806 658.62 351.816C657.003 358.286 654.847 365.295 652.152 372.844C649.457 379.853 646.493 386.593 643.259 393.063C640.564 399.533 637.869 404.386 635.174 407.621C632.48 410.317 627.629 414.63 620.622 420.561C614.155 426.492 605.262 432.423 593.943 438.354C582.625 444.285 569.42 449.408 554.329 453.721C539.238 458.574 522.53 461 504.205 461C483.724 461 462.435 458.035 440.337 452.104C418.779 445.633 399.106 434.85 381.32 419.753C363.534 404.116 348.713 383.358 336.855 357.477C325.537 331.057 319.878 298.167 319.878 258.807C319.878 244.788 320.686 228.882 322.303 211.089C324.459 192.757 328.501 174.156 334.43 155.284C340.359 135.874 348.174 117.002 357.875 98.6702C368.116 79.7988 381.59 63.0842 398.298 48.5263C415.006 33.9684 434.948 22.376 458.123 13.7491C481.838 4.58303 509.864 0 542.202 0C568.612 0 591.249 3.23508 610.112 9.70523C629.515 15.6362 645.415 23.9936 657.811 34.7772C670.207 45.0216 679.37 57.1532 685.299 71.1719C691.766 85.1906 695 100.288 695 116.463C695 145.579 685.838 167.146 667.513 181.165C649.188 194.644 623.317 201.384 589.901 201.384C581.817 201.384 576.157 200.845 572.924 199.767C570.229 198.149 568.881 194.914 568.881 190.061C568.881 177.121 568.612 165.529 568.073 155.284C567.534 145.04 565.917 136.413 563.222 129.404C561.066 122.394 557.563 117.002 552.712 113.228C547.862 109.454 540.855 107.567 531.693 107.567C514.985 107.567 501.51 112.958 491.27 123.742C481.568 134.526 474.023 147.736 468.633 163.372C463.782 178.469 460.549 194.105 458.932 210.281C457.854 226.456 457.315 239.936 457.315 250.719C457.315 289.001 463.244 315.691 475.101 330.788C487.497 345.885 506.9 353.433 533.309 353.433Z" fill="#6366F1"/>
<path d="M552.443 30.5536C552.443 42.9612 542.388 53.0195 529.986 53.0195L220.079 53.0195C207.676 53.0195 197.622 42.9612 197.622 30.5536C197.622 18.146 207.676 8.08772 220.079 8.08772L529.986 8.08775C542.388 8.08775 552.443 18.1461 552.443 30.5536Z" fill="#6366F1"/>
<path d="M170.673 30.5536C170.673 42.9612 160.619 53.0195 148.216 53.0195L103.302 53.0195C90.8996 53.0195 80.8453 42.9612 80.8453 30.5536C80.8453 18.146 90.8996 8.08772 103.302 8.08772L148.216 8.08773C160.619 8.08773 170.673 18.146 170.673 30.5536Z" fill="#6366F1"/>
<path d="M233.553 30.5536C233.553 33.0351 231.542 35.0468 229.062 35.0468L139.234 35.0468C136.753 35.0468 134.742 33.0351 134.742 30.5536C134.742 28.0721 136.753 26.0604 139.234 26.0604L229.062 26.0604C231.542 26.0604 233.553 28.0721 233.553 30.5536Z" fill="#6366F1"/>
<path d="M422.192 93.4581C422.192 105.866 412.138 115.924 399.735 115.924H359.312C346.91 115.924 336.855 105.866 336.855 93.4581C336.855 81.0505 346.91 70.9922 359.312 70.9922L399.735 70.9922C412.138 70.9922 422.192 81.0505 422.192 93.4581Z" fill="#6366F1"/>
<path d="M309.907 93.4581C309.907 105.866 299.853 115.924 287.45 115.924L179.656 115.924C167.254 115.924 157.199 105.866 157.199 93.4581C157.199 81.0505 167.254 70.9922 179.656 70.9922L287.45 70.9922C299.853 70.9922 309.907 81.0505 309.907 93.4581Z" fill="#6366F1"/>
<path d="M372.787 93.4581C372.787 95.9396 370.776 97.9513 368.295 97.9513L278.467 97.9513C275.987 97.9513 273.976 95.9396 273.976 93.4581C273.976 90.9766 275.987 88.9649 278.467 88.9649L368.295 88.9649C370.776 88.9649 372.787 90.9766 372.787 93.4581Z" fill="#6366F1"/>
<path d="M422.192 160.856C422.192 173.263 412.138 183.322 399.735 183.322L220.079 183.322C207.676 183.322 197.622 173.263 197.622 160.856C197.622 148.448 207.676 138.39 220.079 138.39L399.735 138.39C412.138 138.39 422.192 148.448 422.192 160.856Z" fill="#6366F1"/>
<path d="M170.673 160.856C170.673 173.263 160.619 183.322 148.216 183.322H22.457C10.0543 183.322 -1.08428e-06 173.263 0 160.856C1.08428e-06 148.448 10.0544 138.39 22.457 138.39L148.216 138.39C160.619 138.39 170.673 148.448 170.673 160.856Z" fill="#6366F1"/>
<path d="M233.553 160.856C233.553 163.337 231.542 165.349 229.062 165.349H139.234C136.753 165.349 134.742 163.337 134.742 160.856C134.742 158.374 136.753 156.363 139.234 156.363L229.062 156.363C231.542 156.363 233.553 158.374 233.553 160.856Z" fill="#6366F1"/>
<path d="M422.192 228.253C422.192 240.661 412.138 250.719 399.735 250.719H278.467C266.064 250.719 256.01 240.661 256.01 228.253C256.01 215.846 266.064 205.788 278.467 205.788L399.735 205.788C412.138 205.788 422.192 215.846 422.192 228.253Z" fill="#6366F1"/>
<path d="M229.062 228.253C229.062 240.661 219.007 250.719 206.605 250.719H121.268C108.865 250.719 98.8109 240.661 98.8109 228.253C98.8109 215.846 108.865 205.788 121.268 205.788H206.605C219.007 205.788 229.062 215.846 229.062 228.253Z" fill="#6366F1"/>
<path d="M291.941 228.253C291.941 230.735 289.93 232.747 287.45 232.747H197.622C195.141 232.747 193.13 230.735 193.13 228.253C193.13 225.772 195.141 223.76 197.622 223.76L287.45 223.76C289.93 223.76 291.941 225.772 291.941 228.253Z" fill="#6366F1"/>
<path d="M422.192 363.049C422.192 375.456 412.138 385.515 399.735 385.515L193.13 385.515C180.728 385.515 170.673 375.456 170.673 363.049C170.673 350.641 180.728 340.583 193.13 340.583H399.735C412.138 340.583 422.192 350.641 422.192 363.049Z" fill="#6366F1"/>
<path d="M143.725 363.049C143.725 375.456 133.671 385.515 121.268 385.515L67.3711 385.515C54.9684 385.515 44.914 375.456 44.9141 363.049C44.9141 350.641 54.9684 340.583 67.3711 340.583H121.268C133.671 340.583 143.725 350.641 143.725 363.049Z" fill="#6366F1"/>
<path d="M206.605 363.049C206.605 365.53 204.594 367.542 202.113 367.542L112.285 367.542C109.805 367.542 107.794 365.53 107.794 363.049C107.794 360.567 109.805 358.556 112.285 358.556H202.113C204.594 358.556 206.605 360.567 206.605 363.049Z" fill="#6366F1"/>
<path d="M543.46 430.446C543.46 442.854 533.406 452.912 521.003 452.912L278.467 452.912C266.064 452.912 256.01 442.854 256.01 430.446C256.01 418.039 266.064 407.981 278.467 407.981H521.003C533.406 407.981 543.46 418.039 543.46 430.446Z" fill="#6366F1"/>
<path d="M233.553 430.446C233.553 442.854 223.499 452.912 211.096 452.912H184.148C171.745 452.912 161.691 442.854 161.691 430.446C161.691 418.039 171.745 407.981 184.148 407.981H211.096C223.499 407.981 233.553 418.039 233.553 430.446Z" fill="#6366F1"/>
<path d="M296.433 430.446C296.433 432.928 294.422 434.94 291.941 434.94L202.113 434.94C199.633 434.94 197.622 432.928 197.622 430.446C197.622 427.965 199.633 425.953 202.113 425.953H291.941C294.422 425.953 296.433 427.965 296.433 430.446Z" fill="#6366F1"/>
<path d="M422.192 295.651C422.192 308.059 412.138 318.117 399.735 318.117L166.182 318.117C153.779 318.117 143.725 308.059 143.725 295.651C143.725 283.243 153.779 273.185 166.182 273.185L399.735 273.185C412.138 273.185 422.192 283.244 422.192 295.651Z" fill="#6366F1"/>
</svg>
